<?xml version="1.0" encoding="UTF-8" standalone="no"?>
<svg
   xmlns:dc="http://purl.org/dc/elements/1.1/"
   xmlns:cc="http://creativecommons.org/ns#"
   xmlns:rdf="http://www.w3.org/1999/02/22-rdf-syntax-ns#"
   xmlns:svg="http://www.w3.org/2000/svg"
   xmlns="http://www.w3.org/2000/svg"
   xmlns:sodipodi="http://sodipodi.sourceforge.net/DTD/sodipodi-0.dtd"
   xmlns:inkscape="http://www.inkscape.org/namespaces/inkscape"
   width="256"
   height="256"
   viewBox="0 0 256 256"
   version="1.1"
   id="SVGRoot"
   sodipodi:docname="fusion.svg"
   inkscape:version="1.0.2-2 (e86c870879, 2021-01-15)">
  <defs
     id="defs108" />
  <sodipodi:namedview
     id="base"
     pagecolor="#ffffff"
     bordercolor="#666666"
     borderopacity="1.0"
     inkscape:pageopacity="0.0"
     inkscape:pageshadow="2"
     inkscape:zoom="2.7578125"
     inkscape:cx="250.69846"
     inkscape:cy="132.70541"
     inkscape:document-units="px"
     inkscape:current-layer="layer1"
     inkscape:document-rotation="0"
     showgrid="true"
     inkscape:window-width="1920"
     inkscape:window-height="1057"
     inkscape:window-x="-8"
     inkscape:window-y="-8"
     inkscape:window-maximized="1">
    <inkscape:grid
       type="xygrid"
       id="grid117" />
  </sodipodi:namedview>
  <metadata
     id="metadata111">
    <rdf:RDF>
      <cc:Work
         rdf:about="">
        <dc:format>image/svg+xml</dc:format>
        <dc:type
           rdf:resource="http://purl.org/dc/dcmitype/StillImage" />
        <dc:title></dc:title>
      </cc:Work>
    </rdf:RDF>
  </metadata>
  <g
     inkscape:label="Layer 1"
     inkscape:groupmode="layer"
     id="layer1">
    <path
       style="fill:#ffffff;stroke-width:3.13197"
       d="M 136.93654,249.3154 C 112.69857,234.91143 83.356523,217.73466 64.045681,201.83013 46.250099,187.07232 44.239274,186.20381 32.632411,188.26224 25.812052,189.4718 17.678908,190.31011 14.558755,190.12515 -15.658243,188.33395 2.905577,134.11002 55.710115,69.924218 L 74.28749,47.34275 69.735807,36.224546 C 56.464558,3.8074224 70.303848,-8.0160431 105.52955,5.6444983 123.11304,12.463383 175.53031,47.260112 192.82176,63.592617 l 11.38153,10.750343 13.41977,-5.558856 c 31.94906,-13.234208 44.82798,-4.099436 35.33708,25.063906 -6.12787,18.82948 -34.3256,63.23083 -59.69838,94.00364 L 175,210 l 4.22847,15.22119 c 3.72274,13.4007 3.63583,16.1443 -0.72656,22.93936 -6.1887,9.63982 -21.87245,10.07558 -41.56537,1.15485 z m 7.0803,-39.5414 c 5.73305,-5.85119 6.36824,-23.01843 1.2739,-34.42967 -3.11326,-6.97364 -5.56207,-8.059 -18.1829,-8.059 -9.58923,0 -17.12737,-2.04096 -22.00709,-5.95844 -7.393311,-5.93543 -7.498408,-5.91126 -27.216899,6.25742 -10.887213,6.71872 -20.398191,12.83154 -21.135511,13.58406 -0.737321,0.75251 12.843517,8.61534 30.179637,17.47295 33.065963,16.89453 48.495283,19.90334 57.088863,11.13268 z m 58.10695,-66.82986 c 5.92755,-12.64274 8.83782,-23.30753 8.20254,-30.05848 -0.88941,-9.45144 -2.03399,-10.55011 -11.83519,-11.36049 -6.6686,-0.55137 -16.21434,1.88757 -24.76738,6.3281 -13.7044,7.11494 -13.90256,7.44432 -12.98237,21.57694 0.68511,10.52238 -0.68945,16.45865 -5.15161,22.24827 l -6.08602,7.89658 11.11263,18.27023 11.1126,18.27021 10.60382,-16.78812 c 5.83209,-9.23347 14.73805,-25.60593 19.79098,-36.38324 z m -124.557012,9.05657 c 13.437825,-5.25479 13.897099,-5.87051 12.929414,-17.33388 -0.662465,-7.84767 1.186028,-15.67272 5.44104,-23.03304 L 102.3816,100.48632 89.642567,81.340697 76.90354,62.195067 70.801959,71.234514 c -13.843288,20.50873 -27.318978,53.329516 -27.318978,66.536866 0,20.24592 9.043255,24.0213 34.083797,14.22933 z M 176.12037,90.975702 192.50166,79.276079 183.87078,73.056662 C 167.47321,61.240549 136.36211,46.912784 123.06256,45.052314 c -18.24711,-2.552587 -25.203009,4.281266 -22.42234,22.02893 1.08704,6.938102 4.1275,16.331224 6.75656,20.873599 3.99374,6.900179 6.65236,8.097354 16.16058,7.277103 7.26511,-0.62675 14.74363,1.200103 20.68093,5.051944 5.11527,3.31855 10.69556,5.21421 12.40066,4.21258 1.70509,-1.00163 10.47172,-7.085976 19.48142,-13.520768 z"
       id="path138"
       sodipodi:nodetypes="ccssscssscssscsscsssssssssssssscccssssscccsssscssssssss" />
  </g>
</svg>
