<?xml version="1.0" encoding="UTF-8" standalone="no"?>
<svg
   xmlns:dc="http://purl.org/dc/elements/1.1/"
   xmlns:cc="http://creativecommons.org/ns#"
   xmlns:rdf="http://www.w3.org/1999/02/22-rdf-syntax-ns#"
   xmlns:svg="http://www.w3.org/2000/svg"
   xmlns="http://www.w3.org/2000/svg"
   xmlns:sodipodi="http://sodipodi.sourceforge.net/DTD/sodipodi-0.dtd"
   xmlns:inkscape="http://www.inkscape.org/namespaces/inkscape"
   height="256"
   width="256"
   version="1.1"
   id="svg18"
   sodipodi:docname="godotc.svg"
   inkscape:version="1.0.2-2 (e86c870879, 2021-01-15)">
  <metadata
     id="metadata24">
    <rdf:RDF>
      <cc:Work
         rdf:about="">
        <dc:format>image/svg+xml</dc:format>
        <dc:type
           rdf:resource="http://purl.org/dc/dcmitype/StillImage" />
        <dc:title></dc:title>
      </cc:Work>
    </rdf:RDF>
  </metadata>
  <defs
     id="defs22" />
  <sodipodi:namedview
     pagecolor="#ffffff"
     bordercolor="#666666"
     borderopacity="1"
     objecttolerance="10"
     gridtolerance="10"
     guidetolerance="10"
     inkscape:pageopacity="0"
     inkscape:pageshadow="2"
     inkscape:window-width="1920"
     inkscape:window-height="1057"
     id="namedview20"
     showgrid="true"
     inkscape:zoom="1.2540097"
     inkscape:cx="218.57177"
     inkscape:cy="340.97492"
     inkscape:window-x="-8"
     inkscape:window-y="-8"
     inkscape:window-maximized="1"
     inkscape:current-layer="svg18">
    <inkscape:grid
       type="xygrid"
       id="grid26" />
  </sodipodi:namedview>
  <path
     d="m 240.34224,174.42877 c 0,0 -0.3732,-2.42806 -0.59138,-2.40614 l -41.54802,4.25094 c -3.30598,0.33852 -5.87359,3.13433 -6.10555,6.64735 l -1.14142,17.34838 -32.14339,2.43172 -2.18638,-15.72277 c -0.48688,-3.49719 -3.36683,-6.13348 -6.70037,-6.13348 H 106.0742 c -3.33238,0 -6.212335,2.63629 -6.699215,6.13348 L 97.18746,202.70102 65.044063,200.2693 63.902648,182.92092 c -0.231959,-3.51424 -2.799573,-6.31005 -6.105545,-6.64857 l -41.568698,-4.24972 c -0.214733,-0.0219 -0.372051,2.40858 -0.586784,2.40858 l -0.05627,9.53449 35.20478,6.02024 1.152902,17.50302 c 0.233106,3.54347 2.92933,6.40869 6.273198,6.66319 l 44.268369,3.34863 c 0.16765,0.0122 0.33301,0.0195 0.49836,0.0195 3.32665,0 6.20201,-2.63751 6.68889,-6.13471 l 2.24953,-16.17818 h 32.15832 l 2.24954,16.17818 c 0.48573,3.49598 3.36454,6.13349 6.69577,6.13349 0.16306,0 0.32612,-0.006 0.48574,-0.0183 l 44.2741,-3.34863 c 3.34272,-0.2545 6.04009,-3.11972 6.2732,-6.66318 l 1.15175,-17.50303 35.18985,-6.04703 z"
     fill="#ffffff"
     id="path2"
     style="stroke-width:1.18249" />
  <path
     d="m 15.641083,102.53529 v 57.85716 7.34874 6.68753 c 0.124017,0.001 0.248034,0.006 0.370903,0.0183 l 41.564104,4.24972 c 2.177189,0.22284 3.883573,2.08103 4.035148,4.39463 l 1.281509,19.4562 36.25663,2.74345 2.497563,-17.95723 c 0.32383,-2.32821 2.20705,-4.05367 4.42787,-4.05367 h 43.85153 c 2.21968,0 4.1029,1.72546 4.42673,4.05367 l 2.49756,17.95723 36.25778,-2.74345 1.28036,-19.4562 c 0.15273,-2.3136 1.85796,-4.17057 4.03515,-4.39463 l 41.54803,-4.24972 c 0.12287,-0.0122 0.24574,-0.0171 0.36975,-0.0183 v -5.73652 l 0.0172,-0.006 v -66.15083 c 5.85282,-7.813246 11.39491,-16.431712 15.64108,-23.682781 -6.48908,-11.714145 -14.43995,-22.182597 -22.93857,-31.881468 -7.88198,4.207106 -15.53774,8.973132 -22.76862,14.044795 -3.61832,-3.813792 -7.69366,-6.933505 -11.69665,-10.194472 -3.93295,-3.349855 -8.36542,-5.80593 -12.56937,-8.667491 1.25166,-9.883964 1.8706,-19.614496 2.11978,-29.770003 C 177.29966,6.5949901 165.73277,2.7568422 154.03268,0 c -4.67131,8.325322 -8.94301,17.341073 -12.66353,26.154688 -4.41179,-0.781753 -8.84425,-1.071565 -13.28246,-1.127578 v -0.0073 c -0.031,0 -0.0597,0.0073 -0.0861,0.0073 -0.0276,0 -0.0563,-0.0073 -0.0838,-0.0073 v 0.0073 c -4.44624,0.05601 -8.87526,0.345825 -13.2882,1.127578 C 110.91032,17.341073 106.64092,8.325322 101.96272,0 90.268364,2.7568422 78.700325,6.5949901 67.85457,12.38387 c 0.248034,10.155507 0.866972,19.886039 2.12207,29.770003 -4.21199,2.861561 -8.63871,5.317636 -12.572809,8.667491 -3.997255,3.260967 -8.079485,6.38068 -11.698947,10.194472 C 38.47401,55.944173 30.820547,51.178147 22.936274,46.971041 14.437658,56.669912 6.4913768,67.138364 0,78.852509 5.1015331,87.344281 10.573572,95.879282 15.641083,102.53529 Z"
     fill="#478cbf"
     id="path4"
     style="stroke-width:1.18249" />
  <path
     d="m 203.0542,187.75963 -1.28725,19.5597 c -0.15502,2.35744 -1.92342,4.2339 -4.14654,4.40315 l -44.27296,3.34986 c -0.10794,0.009 -0.21588,0.0122 -0.32267,0.0122 -2.20015,0 -4.09831,-1.71207 -4.42328,-4.0549 l -2.5389,-18.25798 h -36.12458 l -2.5389,18.25799 c -0.34105,2.45729 -2.4126,4.22415 -4.74596,4.04272 l -44.272951,-3.34986 c -2.223123,-0.16925 -3.991515,-2.04571 -4.146536,-4.40315 l -1.287252,-19.5597 -37.373932,-3.8211 c 0.01723,4.25947 0.0689,8.92564 0.0689,9.85474 0,41.85675 50.071905,61.97537 112.282561,62.20673 h 0.0758 0.0769 c 62.21066,-0.23136 112.26534,-20.34998 112.26534,-62.20673 0,-0.94614 0.054,-5.59284 0.0723,-9.85474 z"
     fill="#478cbf"
     id="path6"
     style="stroke-width:1.18249" />
  <path
     d="m 94.128235,131.71923 c 0,14.67556 -11.213212,26.56383 -25.048009,26.56383 -13.827907,0 -25.044567,-11.88827 -25.044567,-26.56383 0,-14.66582 11.21666,-26.54801 25.044567,-26.54801 13.834797,0 25.048009,11.88219 25.048009,26.54801"
     fill="#ffffff"
     id="path8"
     style="stroke-width:1.18249" />
  <path
     d="m 88.101206,133.29472 c 0,9.73418 -7.439876,17.62358 -16.626329,17.62358 -9.18186,0 -16.626329,-7.8894 -16.626329,-17.62358 0,-9.73419 7.444469,-17.63088 16.626329,-17.63088 9.186453,0 16.626329,7.89669 16.626329,17.63088"
     fill="#414042"
     id="path10"
     style="stroke-width:1.18249" />
  <path
     d="m 127.99817,160.69969 c -4.45313,0 -8.06226,-3.48015 -8.06226,-7.77006 v -24.45236 c 0,-4.28626 3.60913,-7.77006 8.06226,-7.77006 4.45314,0 8.0703,3.4838 8.0703,7.77006 v 24.45236 c 0,4.28991 -3.61716,7.77006 -8.0703,7.77006"
     fill="#ffffff"
     id="path12"
     style="stroke-width:1.18249" />
  <path
     d="m 161.8723,131.71923 c 0,14.67556 11.21321,26.56383 25.0503,26.56383 13.82676,0 25.04227,-11.88827 25.04227,-26.56383 0,-14.66582 -11.21551,-26.54801 -25.04227,-26.54801 -13.83709,0 -25.0503,11.88219 -25.0503,26.54801"
     fill="#ffffff"
     id="path14"
     style="stroke-width:1.18249" />
  <path
     d="m 167.90085,133.29472 c 0,9.73418 7.43758,17.62358 16.61714,17.62358 9.18875,0 16.62633,-7.8894 16.62633,-17.62358 0,-9.73419 -7.43758,-17.63088 -16.62633,-17.63088 -9.17956,0 -16.61714,7.89669 -16.61714,17.63088"
     fill="#414042"
     id="path16"
     style="stroke-width:1.18249" />
</svg>
