<?xml version="1.0" encoding="UTF-8" standalone="no"?>
<svg
   version="1.1"
   id="svg2"
   xml:space="preserve"
   width="256"
   height="256"
   viewBox="0 0 256 256"
   sodipodi:docname="github.svg"
   inkscape:version="1.1.2 (0a00cf5339, 2022-02-04, custom)"
   xmlns:inkscape="http://www.inkscape.org/namespaces/inkscape"
   xmlns:sodipodi="http://sodipodi.sourceforge.net/DTD/sodipodi-0.dtd"
   xmlns="http://www.w3.org/2000/svg"
   xmlns:svg="http://www.w3.org/2000/svg"
   xmlns:rdf="http://www.w3.org/1999/02/22-rdf-syntax-ns#"
   xmlns:cc="http://creativecommons.org/ns#"
   xmlns:dc="http://purl.org/dc/elements/1.1/"><metadata
     id="metadata8"><rdf:RDF><cc:Work
         rdf:about=""><dc:format>image/svg+xml</dc:format><dc:type
           rdf:resource="http://purl.org/dc/dcmitype/StillImage" /></cc:Work></rdf:RDF></metadata><defs
     id="defs6"><clipPath
       clipPathUnits="userSpaceOnUse"
       id="clipPath20"><path
         d="M 0,551.986 H 530.973 V 0 H 0 Z"
         id="path18" /></clipPath></defs><sodipodi:namedview
     pagecolor="#373737"
     bordercolor="#666666"
     borderopacity="1"
     objecttolerance="10"
     gridtolerance="10"
     guidetolerance="10"
     inkscape:pageopacity="0"
     inkscape:pageshadow="2"
     inkscape:window-width="1920"
     inkscape:window-height="1057"
     id="namedview4"
     showgrid="true"
     inkscape:zoom="2"
     inkscape:cx="84.75"
     inkscape:cy="59"
     inkscape:window-x="-8"
     inkscape:window-y="-8"
     inkscape:window-maximized="1"
     inkscape:current-layer="g10"
     inkscape:pagecheckerboard="false"><inkscape:grid
       type="xygrid"
       id="grid1790" /></sodipodi:namedview><g
     id="g10"
     inkscape:groupmode="layer"
     inkscape:label="GitHub-Mark"
     transform="matrix(1.3333333,0,0,-1.3333333,0,735.98133)"><g
       id="g14"
       transform="matrix(1.5897728,0,0,1.630017,-461.38514,197.36817)"
       style="fill:#ffffff;stroke-width:0.621207"><g
         id="g16"
         clip-path="url(#clipPath20)"
         style="fill:#ffffff;stroke-width:0.621207"><g
           id="g26"
           transform="translate(350.6088,493.5547)"
           style="fill:#ffffff;stroke-width:0.621207" /><g
           id="g30"
           transform="translate(313.0932,406.8515)"
           style="fill:#ffffff;stroke-width:0.621207" /><g
           id="g34"
           transform="translate(315.5395,404.123)"
           style="fill:#ffffff;stroke-width:0.621207" /><g
           id="g38"
           transform="translate(317.9204,400.6455)"
           style="fill:#ffffff;stroke-width:0.621207" /><g
           id="g42"
           transform="translate(321.1821,397.2851)"
           style="fill:#ffffff;stroke-width:0.621207" /><g
           id="g46"
           transform="translate(325.6821,395.334)"
           style="fill:#ffffff;stroke-width:0.621207" /><g
           id="g50"
           transform="translate(330.6245,394.9726)"
           style="fill:#ffffff;stroke-width:0.621207" /><g
           id="g54"
           transform="translate(335.2231,395.7549)"
           style="fill:#ffffff;stroke-width:0.621207" /><g
           id="g58"
           transform="translate(224.8979,499.4882)"
           style="fill:#ffffff;stroke-width:0.621207" /><g
           id="g62"
           transform="translate(224.8979,496.9882)"
           style="fill:#ffffff;stroke-width:0.621207" /><g
           id="g200"
           transform="translate(350.6088,217.5547)"
           style="fill:#ffffff;stroke-width:0.621207"><path
             d="m 0,0 c -33.347,0 -60.388,-27.035 -60.388,-60.388 0,-26.68 17.303,-49.316 41.297,-57.301 3.018,-0.559 4.126,1.31 4.126,2.905 0,1.439 -0.056,6.197 -0.082,11.243 -16.8,-3.653 -20.345,7.125 -20.345,7.125 -2.747,6.979 -6.705,8.836 -6.705,8.836 -5.479,3.748 0.413,3.671 0.413,3.671 6.064,-0.426 9.257,-6.224 9.257,-6.224 5.386,-9.231 14.127,-6.562 17.573,-5.019 0.543,3.902 2.107,6.567 3.834,8.075 -13.413,1.526 -27.513,6.705 -27.513,29.844 0,6.592 2.359,11.979 6.222,16.208 -0.627,1.522 -2.694,7.664 0.586,15.982 0,0 5.071,1.622 16.61,-6.191 4.817,1.338 9.983,2.009 15.115,2.033 5.132,-0.024 10.302,-0.695 15.128,-2.033 11.526,7.813 16.59,6.191 16.59,6.191 3.287,-8.318 1.22,-14.46 0.593,-15.982 3.872,-4.229 6.214,-9.616 6.214,-16.208 0,-23.195 -14.127,-28.301 -27.574,-29.796 2.166,-1.874 4.096,-5.549 4.096,-11.183 0,-8.08 -0.069,-14.583 -0.069,-16.572 0,-1.608 1.086,-3.491 4.147,-2.898 23.982,7.994 41.263,30.622 41.263,57.294 C 60.388,-27.035 33.351,0 0,0"
             style="fill:#ffffff;fill-opacity:1;fill-rule:evenodd;stroke:none;stroke-width:0.621207"
             id="path202" /></g><g
           id="g204"
           transform="translate(313.0932,130.8515)"
           style="fill:#ffffff;stroke-width:0.621207"><path
             d="m 0,0 c -0.133,-0.301 -0.605,-0.391 -1.035,-0.184 -0.439,0.197 -0.684,0.606 -0.542,0.907 0.13,0.308 0.602,0.394 1.04,0.188 C -0.099,0.714 0.151,0.301 0,0"
             style="fill:#ffffff;fill-opacity:1;fill-rule:nonzero;stroke:none;stroke-width:0.621207"
             id="path206" /></g><g
           id="g208"
           transform="translate(315.5395,128.123)"
           style="fill:#ffffff;stroke-width:0.621207"><path
             d="M 0,0 C -0.288,-0.267 -0.852,-0.143 -1.233,0.279 -1.629,0.7 -1.702,1.264 -1.41,1.534 -1.113,1.801 -0.567,1.676 -0.172,1.255 0.224,0.829 0.301,0.27 0,0"
             style="fill:#ffffff;fill-opacity:1;fill-rule:nonzero;stroke:none;stroke-width:0.621207"
             id="path210" /></g><g
           id="g212"
           transform="translate(317.9204,124.6455)"
           style="fill:#ffffff;stroke-width:0.621207"><path
             d="M 0,0 C -0.37,-0.258 -0.976,-0.017 -1.35,0.52 -1.72,1.058 -1.72,1.702 -1.341,1.96 -0.967,2.218 -0.37,1.985 0.009,1.453 0.378,0.907 0.378,0.263 0,0"
             style="fill:#ffffff;fill-opacity:1;fill-rule:nonzero;stroke:none;stroke-width:0.621207"
             id="path214" /></g><g
           id="g216"
           transform="translate(321.1821,121.2851)"
           style="fill:#ffffff;stroke-width:0.621207"><path
             d="M 0,0 C -0.331,-0.365 -1.036,-0.267 -1.552,0.231 -2.08,0.718 -2.227,1.409 -1.896,1.774 -1.56,2.14 -0.851,2.037 -0.331,1.543 0.193,1.057 0.352,0.361 0,0"
             style="fill:#ffffff;fill-opacity:1;fill-rule:nonzero;stroke:none;stroke-width:0.621207"
             id="path218" /></g><g
           id="g220"
           transform="translate(325.6821,119.334)"
           style="fill:#ffffff;stroke-width:0.621207"><path
             d="m 0,0 c -0.147,-0.473 -0.825,-0.687 -1.509,-0.486 -0.683,0.207 -1.13,0.76 -0.992,1.238 0.142,0.477 0.824,0.7 1.513,0.485 C -0.306,1.031 0.142,0.481 0,0"
             style="fill:#ffffff;fill-opacity:1;fill-rule:nonzero;stroke:none;stroke-width:0.621207"
             id="path222" /></g><g
           id="g224"
           transform="translate(330.6245,118.9726)"
           style="fill:#ffffff;stroke-width:0.621207"><path
             d="m 0,0 c 0.017,-0.498 -0.563,-0.911 -1.281,-0.92 -0.722,-0.017 -1.307,0.387 -1.315,0.877 0,0.503 0.568,0.911 1.289,0.924 C -0.589,0.895 0,0.494 0,0"
             style="fill:#ffffff;fill-opacity:1;fill-rule:nonzero;stroke:none;stroke-width:0.621207"
             id="path226" /></g><g
           id="g228"
           transform="translate(335.2231,119.7549)"
           style="fill:#ffffff;stroke-width:0.621207"><path
             d="m 0,0 c 0.086,-0.485 -0.413,-0.984 -1.126,-1.117 -0.701,-0.129 -1.35,0.172 -1.439,0.653 -0.087,0.498 0.42,0.997 1.121,1.126 C -0.73,0.786 -0.091,0.494 0,0"
             style="fill:#ffffff;fill-opacity:1;fill-rule:nonzero;stroke:none;stroke-width:0.621207"
             id="path230" /></g><g
           id="g232"
           transform="translate(224.8979,223.4882)"
           style="fill:#ffffff;stroke-width:0.621207" /><g
           id="g236"
           transform="translate(224.8979,220.9882)"
           style="fill:#ffffff;stroke-width:0.621207" /></g></g></g></svg>
